<?xml version="1.0" encoding="utf-8"?>
<!-- Generator: Adobe Illustrator 27.2.0, SVG Export Plug-In . SVG Version: 6.00 Build 0)  -->
<svg version="1.1" id="レイヤー_1" xmlns="http://www.w3.org/2000/svg" xmlns:xlink="http://www.w3.org/1999/xlink" x="0px"
	 y="0px" viewBox="0 0 295 54" style="enable-background:new 0 0 295 54;" xml:space="preserve">
<style type="text/css">
	.st0{fill:none;}
	.st1{fill:#FF0010;}
</style>
<path d="M75,37.1v2h12v-2H75z M74.2,30.2V40h2.3v-7.8h9V40h2.4v-9.8H74.2z M80.9,24.6c2.2,3.1,6.2,6.5,9.9,8.4
	c0.4-0.7,0.9-1.4,1.5-2c-3.8-1.7-7.8-5-10.3-8.7h-2.3c-1.8,3.1-5.7,6.8-9.8,8.9c0.5,0.5,1.1,1.3,1.4,1.8
	C75.2,30.9,79,27.5,80.9,24.6z M83,19.4c2.3,1.7,5.1,4.2,6.3,5.8l1.9-1.4c-1.4-1.7-4.2-4.1-6.5-5.7L83,19.4z M76.7,18.2
	c-1.4,2.1-3.8,4.2-6.1,5.6c0.5,0.4,1.4,1.2,1.8,1.6c2.3-1.5,4.8-4,6.5-6.4L76.7,18.2z M106.5,19v2.1h14V19H106.5z M109.3,27.9v1.8
	h8.5v-1.8H109.3z M104.6,37v2.1h16.3V37H104.6z M99,23.6v2.2h7.4v-2.2H99z M101.7,18.1v15.8h2.2V18.1H101.7z M98.5,33.9l0.8,2.3
	c2.2-0.9,5.1-2,7.7-3l-0.4-2.1C103.6,32.2,100.5,33.3,98.5,33.9z M110.3,25.2h6.3v7.6h-6.3V25.2z M108.2,23.2v11.5h10.7V23.2H108.2z
	 M129,20.4v2.4h19.2v-2.4H129z M127.8,36v2.3h21.7V36H127.8z M137.2,21.6v15.3h2.6V21.6H137.2z M156.8,32.5v1.9H178v-1.9H156.8z
	 M156.9,21.9v1.9h21v-1.9H156.9z M157.9,26.1v1.8H177v-1.8H157.9z M159.1,29.3V31h16.8v-1.7H159.1z M166.2,27V40h2.3V27H166.2z
	 M164.1,17.7v5.1h2.1v-5.1H164.1z M168.6,17.7v4.9h2.2v-4.9H168.6z M165.7,33.3c-2,2-5.9,3.7-9.5,4.5c0.5,0.5,1.2,1.3,1.5,1.9
	c3.6-1,7.6-3,9.8-5.5L165.7,33.3z M169.1,33.2l-1.8,0.7c2.3,2.6,6.1,4.8,9.8,5.7c0.3-0.6,1-1.6,1.5-2C175,37,171,35.3,169.1,33.2z
	 M174.1,18c-0.4,1.1-1.1,2.6-1.7,3.6l1.8,0.6c0.6-0.9,1.5-2.3,2.2-3.6L174.1,18z M170.9,23.1c-0.3,0.9-0.8,2.1-1.3,3l1.9,0.6
	c0.5-0.8,1.1-1.8,1.8-3L170.9,23.1z M158.8,18.6c0.7,1.1,1.5,2.6,1.8,3.6l2-0.8c-0.3-1-1.2-2.4-1.9-3.5L158.8,18.6z M161.9,23.9
	c0.5,0.7,0.9,1.8,1.1,2.5l2.3-0.4c-0.2-0.7-0.7-1.7-1.2-2.4L161.9,23.9z M194,28v2.1h13.2V28H194z M196.4,22.1v2.1h10v-2.1H196.4z
	 M199.5,17.7V40h2.2V17.7H199.5z M198.8,29c-1.2,3.2-3.7,6.5-6.3,8.1c0.5,0.4,1.2,1.2,1.5,1.8c2.7-2,5.1-5.5,6.5-9.3L198.8,29z
	 M202.6,29.1l-1.6,0.5c1.1,3.4,3.1,7.1,5.2,9c0.4-0.6,1.1-1.4,1.6-1.8C205.7,35.3,203.6,32.1,202.6,29.1z M195.9,18.9
	c-0.4,2.8-1.2,5.6-2.4,7.4c0.5,0.2,1.4,0.8,1.8,1.1c1.3-2,2.2-5,2.7-8.2L195.9,18.9z M185.4,22.3v2.1h8.5v-2.1H185.4z M188.7,17.7
	V40h2.2V17.7H188.7z M188.6,23.8c-0.7,3.2-2.2,7.2-3.8,9.3c0.4,0.6,0.9,1.6,1.2,2.3c1.7-2.5,3.2-7.2,3.9-11.1L188.6,23.8z M190.8,25
	l-1,0.8c0.6,1.1,2.2,4.1,2.7,5.4l1.3-1.6C193.4,29,191.4,25.8,190.8,25z M230.1,19.1c1.2,0.8,2.6,2.1,3.3,2.9l1.6-1.4
	c-0.7-0.8-2.2-2-3.4-2.8L230.1,19.1z M214.3,22.1v2.2h21.5v-2.2H214.3z M215.1,27.5v2.2h10.5v-2.2H215.1z M219.2,28.7v8.4h2.3v-8.4
	H219.2z M214.3,37.1l0.7,2.3c3.1-0.7,7.4-1.6,11.5-2.5l-0.2-2C221.9,35.6,217.2,36.6,214.3,37.1z M226.3,17.8
	c0,11.4,1.8,22.2,6.8,22.2c2,0,2.9-1.2,3.2-5.5c-0.6-0.2-1.5-0.8-2-1.3c-0.1,3.1-0.4,4.5-1,4.5c-2.7,0-4.7-9.3-4.5-19.8H226.3z
	 M244.1,37l0.3,2.2c4.3-0.2,10.7-0.5,16.7-0.8l0.1-2.1C255,36.7,248.3,36.9,244.1,37z M243.9,29.7v2.1h19.9v-2.1H243.9z M248.1,25.1
	v2.1h11.4v-2.1H248.1z M250.2,31.1c-0.7,2.1-2,4.9-3,6.7l2,0.7c1.1-1.7,2.5-4.4,3.6-6.7L250.2,31.1z M256,33.6
	c2.1,1.9,4.4,4.7,5.5,6.5l2.1-1.3c-1.1-1.8-3.4-4.4-5.6-6.3L256,33.6z M253.7,20c2.2,3,6.3,6.1,10,7.8c0.4-0.7,0.9-1.5,1.5-2
	c-3.8-1.5-7.8-4.4-10.4-8h-2.4c-1.8,3-5.8,6.4-9.9,8.3c0.5,0.5,1.1,1.3,1.3,1.9C247.9,26,251.8,22.8,253.7,20z M280.4,37.1v2.2H294
	v-2.2H280.4z M281.3,25.4v2.2h12.1v-2.2H281.3z M286.2,18v20.2h2.3V18H286.2z M271.9,22.2v2.1h7.9v-2.1H271.9z M275.5,29.9V40h2.2
	V27.2L275.5,29.9z M275.5,17.8v5.4h2.2v-5.4H275.5z M277.5,27.8l-1.3,1.1c1,0.9,3.2,3.2,4.2,4.3l1.4-1.8
	C281.1,30.8,278.4,28.4,277.5,27.8z M279,22.2v0.4c-1.4,3.6-4.7,7.2-7.9,9c0.4,0.4,0.9,1.5,1.1,2.1c3.5-2.2,7.2-6.3,9-10.8l-1.3-0.8
	l-0.4,0.1H279z"/>
<rect y="0" class="st0" width="54" height="54"/>
<path d="M27,3.6c12.9,0,23.4,10.5,23.4,23.4c0,12.9-10.5,23.4-23.4,23.4C14.1,50.4,3.6,39.9,3.6,27C3.6,14.1,14.1,3.6,27,3.6z M27,0
	c-3.6,0-7.2,0.7-10.5,2.1c-3.2,1.4-6.1,3.3-8.6,5.8c-2.5,2.5-4.4,5.4-5.8,8.6C0.7,19.8,0,23.4,0,27c0,3.6,0.7,7.2,2.1,10.5
	c1.4,3.2,3.3,6.1,5.8,8.6c2.5,2.5,5.4,4.4,8.6,5.8C19.8,53.3,23.4,54,27,54s7.2-0.7,10.5-2.1c3.2-1.4,6.1-3.3,8.6-5.8
	c2.5-2.5,4.4-5.4,5.8-8.6C53.3,34.2,54,30.6,54,27s-0.7-7.2-2.1-10.5c-1.4-3.2-3.3-6.1-5.8-8.6c-2.5-2.5-5.4-4.4-8.6-5.8
	C34.2,0.7,30.6,0,27,0z"/>
<path d="M39.5,7.3H14.5v3.5h25.1V7.3z"/>
<path d="M25.2,7.3v32.2h3.5V7.3H25.2z"/>
<path d="M25.2,46.7v4.2h3.5v-4.2H25.2z"/>
<path d="M30.6,17.3c0.4,0.1,0.8,0.3,1.1,0.4c1.4,0.6,2.7,1.5,3.8,2.6c1.1,1.1,2,2.4,2.6,3.8l3.7-1.6c-0.8-1.9-2-3.6-3.4-5.1
	c-1.5-1.5-3.2-2.6-5.1-3.4c-0.9-0.4-1.8-0.7-2.7-0.9L30.6,17.3L30.6,17.3z"/>
<path d="M35.6,37.2c-1.1,1.1-2.4,2-3.8,2.6c-1.5,0.6-3.1,0.9-4.7,0.9c-1.6,0-3.2-0.3-4.7-0.9c-1.4-0.6-2.7-1.5-3.8-2.6
	c-1.1-1.1-2-2.4-2.6-3.8c-0.6-1.5-0.9-3.1-0.9-4.7c0-1.6,0.3-3.2,0.9-4.7c0.6-1.4,1.5-2.7,2.6-3.8c1.1-1.1,2.4-2,3.8-2.6
	c0.3-0.1,0.7-0.3,1-0.4v-4.1c-0.9,0.2-1.7,0.5-2.6,0.8c-1.9,0.8-3.6,2-5.1,3.4c-1.5,1.5-2.6,3.2-3.4,5.1c-0.8,2-1.3,4.1-1.3,6.2
	s0.4,4.3,1.3,6.2c0.8,1.9,2,3.6,3.4,5.1c1.5,1.5,3.2,2.6,5.1,3.4c2,0.8,4.1,1.3,6.2,1.3s4.3-0.4,6.2-1.3c1.9-0.8,3.6-2,5.1-3.4
	c1.5-1.5,2.6-3.2,3.4-5.1l-3.7-1.6C37.5,34.9,36.7,36.1,35.6,37.2L35.6,37.2z"/>
<path class="st1" d="M42,29.4l-5.6,3.3l7.1,3L42,29.4z"/>
</svg>
