<svg width="16" height="16" viewBox="0 0 16 16" fill="none" xmlns="http://www.w3.org/2000/svg">
<path d="M15.575 7.60019C15.575 7.73353 15.554 7.85853 15.512 7.97519C15.4707 8.09186 15.4 8.20019 15.3 8.30019L8.7 14.9002C8.5 15.1002 8.26233 15.2002 7.987 15.2002C7.71233 15.2002 7.475 15.1002 7.275 14.9002C7.075 14.7002 6.975 14.4669 6.975 14.2002C6.975 13.9335 7.075 13.7002 7.275 13.5002L12.175 8.60019L0.975 8.6002C0.691666 8.6002 0.458333 8.5042 0.275 8.3122C0.0916664 8.12086 -3.19822e-07 7.88353 -3.32207e-07 7.6002C-3.44591e-07 7.31686 0.0956665 7.0792 0.287 6.8872C0.479 6.69586 0.716666 6.60019 1 6.60019L12.175 6.60019L7.275 1.70019C7.075 1.5002 6.975 1.26686 6.975 1.00019C6.975 0.733528 7.075 0.500195 7.275 0.300195C7.475 0.100196 7.71233 0.000194212 7.987 0.0001942C8.26233 0.000194188 8.5 0.100196 8.7 0.300195L15.3 6.9002C15.4 7.0002 15.4707 7.10853 15.512 7.22519C15.554 7.34186 15.575 7.46686 15.575 7.60019Z" fill="white"/>
</svg>
