<svg width="25" height="25" viewBox="0 0 25 25" fill="none" xmlns="http://www.w3.org/2000/svg">
<path d="M12.2654 24.6264C12.0587 24.6264 11.865 24.5939 11.6842 24.5288C11.5034 24.4647 11.3355 24.3552 11.1805 24.2002L0.951759 13.9715C0.641797 13.6615 0.486816 13.2932 0.486816 12.8665C0.486816 12.4408 0.641797 12.073 0.951759 11.763C1.26172 11.4531 1.62334 11.2981 2.03663 11.2981C2.44991 11.2981 2.81153 11.4531 3.12149 11.763L10.7156 19.3571V1.99922C10.7156 1.56011 10.8643 1.19849 11.1619 0.914357C11.4584 0.630225 11.8263 0.488159 12.2654 0.488159C12.7045 0.488159 13.0728 0.636425 13.3704 0.932955C13.6669 1.23052 13.8152 1.59886 13.8152 2.03797V19.3571L21.4092 11.763C21.7192 11.4531 22.0808 11.2981 22.4941 11.2981C22.9074 11.2981 23.269 11.4531 23.579 11.763C23.8889 12.073 24.0439 12.4408 24.0439 12.8665C24.0439 13.2932 23.8889 13.6615 23.579 13.9715L13.3502 24.2002C13.1952 24.3552 13.0274 24.4647 12.8465 24.5288C12.6657 24.5939 12.472 24.6264 12.2654 24.6264Z" fill="white"/>
</svg>
